<?xml version="1.0" encoding="UTF-8"?>
<svg version="1.1" xmlns="http://www.w3.org/2000/svg" width="512" height="512">
<path d="M0 0 C35.64 0 71.28 0 108 0 C108.99 1.98 108.99 1.98 110 4 C110.66 4 111.32 4 112 4 C112.99 6.475 112.99 6.475 114 9 C114.66 9 115.32 9 116 9 C117.7265625 11.1171875 117.7265625 11.1171875 119.625 13.875 C120.25664062 14.77992187 120.88828125 15.68484375 121.5390625 16.6171875 C123 19 123 19 123 21 C123.66 21 124.32 21 125 21 C129 26.41176471 129 26.41176471 129 29 C129.66 29 130.32 29 131 29 C135 34.41176471 135 34.41176471 135 37 C135.66 37 136.32 37 137 37 C141 42.41176471 141 42.41176471 141 45 C141.66 45 142.32 45 143 45 C147 50.41176471 147 50.41176471 147 53 C147.66 53 148.32 53 149 53 C149.99 55.475 149.99 55.475 151 58 C151.66 58 152.32 58 153 58 C154.55859375 59.87890625 154.55859375 59.87890625 156.4375 62.5625 C157.13746094 63.5525 157.83742187 64.5425 158.55859375 65.5625 C158.9438623 66.1090625 159.32913086 66.655625 159.72607422 67.21875 C161.11761167 69.16444898 162.54122684 71.08347252 163.97265625 73 C164.47418213 73.67345459 164.97570801 74.34690918 165.49243164 75.04077148 C166.48992338 76.37846041 167.49037109 77.71395066 168.49389648 79.04711914 C172 83.77667119 172 83.77667119 172 86 C172.66 86 173.32 86 174 86 C178 91.41176471 178 91.41176471 178 94 C178.66 94 179.32 94 180 94 C180.66 94.66 181.32 95.32 182 96 C182.40992188 95.4225 182.81984375 94.845 183.2421875 94.25 C183.78101563 93.5075 184.31984375 92.765 184.875 92 C185.40867187 91.2575 185.94234375 90.515 186.4921875 89.75 C186.98976563 89.1725 187.48734375 88.595 188 88 C188.66 88 189.32 88 190 88 C190 87.34 190 86.68 190 86 C190.66 86 191.32 86 192 86 C192.2475 85.44828125 192.495 84.8965625 192.75 84.328125 C194.24234474 81.54863293 196.03672523 79.2185293 198 76.75 C198.70125 75.85796875 199.4025 74.9659375 200.125 74.046875 C200.74375 73.37140625 201.3625 72.6959375 202 72 C202.66 72 203.32 72 204 72 C204 71.34 204 70.68 204 70 C204.66 70 205.32 70 206 70 C206.25136719 69.44183594 206.50273437 68.88367188 206.76171875 68.30859375 C210.29144756 61.72793215 215.76162889 56.23837111 221 51 C223.10795816 48.35993589 225.18031423 45.69691157 227.23046875 43.01171875 C227.81441406 42.34785156 228.39835938 41.68398437 229 41 C229.66 41 230.32 41 231 41 C231 40.34 231 39.68 231 39 C231.66 39 232.32 39 233 39 C233.37125 38.17242187 233.37125 38.17242187 233.75 37.328125 C235.24234474 34.54863293 237.03672523 32.2185293 239 29.75 C239.70125 28.85796875 240.4025 27.9659375 241.125 27.046875 C242.053125 26.03367188 242.053125 26.03367188 243 25 C243.66 25 244.32 25 245 25 C245 24.34 245 23.68 245 23 C245.66 23 246.32 23 247 23 C247.25136719 22.44183594 247.50273437 21.88367188 247.76171875 21.30859375 C251.24575439 14.81312037 256.67209367 9.03191154 262 4 C262.89504242 2.95830658 262.89504242 2.95830658 263.8081665 1.89556885 C266.52312552 -0.45241595 267.77471971 -0.48785981 271.31933594 -0.45410156 C272.38013367 -0.45379944 273.4409314 -0.45349731 274.53387451 -0.45318604 C275.67253967 -0.43254089 276.81120483 -0.41189575 277.984375 -0.390625 C279.15510559 -0.38496521 280.32583618 -0.37930542 281.53204346 -0.37347412 C285.271778 -0.35108125 289.01055497 -0.3008768 292.75 -0.25 C295.28514242 -0.22993889 297.82029985 -0.21168744 300.35546875 -0.1953125 C306.57063929 -0.15120678 312.78525124 -0.08426454 319 0 C317.44676378 3.20968312 315.68190622 5.9209182 313.5 8.75 C312.8915625 9.54921875 312.283125 10.3484375 311.65625 11.171875 C311.1096875 11.77515625 310.563125 12.3784375 310 13 C309.34 13 308.68 13 308 13 C308 13.66 308 14.32 308 15 C307.34 15 306.68 15 306 15 C305.62875 15.82757813 305.62875 15.82757813 305.25 16.671875 C303.75765526 19.45136707 301.96327477 21.7814707 300 24.25 C299.29875 25.14203125 298.5975 26.0340625 297.875 26.953125 C297.25625 27.62859375 296.6375 28.3040625 296 29 C295.34 29 294.68 29 294 29 C294 29.66 294 30.32 294 31 C293.34 31 292.68 31 292 31 C291.62875 31.82757813 291.62875 31.82757813 291.25 32.671875 C289.75765526 35.45136707 287.96327477 37.7814707 286 40.25 C285.29875 41.14203125 284.5975 42.0340625 283.875 42.953125 C283.25625 43.62859375 282.6375 44.3040625 282 45 C281.34 45 280.68 45 280 45 C280 45.66 280 46.32 280 47 C279.34 47 278.68 47 278 47 C277.64421875 47.81210938 277.64421875 47.81210938 277.28125 48.640625 C275.65652243 51.63250137 273.6498123 54.11159399 271.5 56.75 C270.7059375 57.73484375 269.911875 58.7196875 269.09375 59.734375 C268.4028125 60.48203125 267.711875 61.2296875 267 62 C266.34 62 265.68 62 265 62 C264.62875 62.82757813 264.62875 62.82757813 264.25 63.671875 C262.75765526 66.45136707 260.96327477 68.7814707 259 71.25 C258.29875 72.14203125 257.5975 73.0340625 256.875 73.953125 C256.25625 74.62859375 255.6375 75.3040625 255 76 C254.34 76 253.68 76 253 76 C253 76.66 253 77.32 253 78 C252.34 78 251.68 78 251 78 C250.7525 78.55171875 250.505 79.1034375 250.25 79.671875 C248.75765526 82.45136707 246.96327477 84.7814707 245 87.25 C244.29875 88.14203125 243.5975 89.0340625 242.875 89.953125 C242.25625 90.62859375 241.6375 91.3040625 241 92 C240.34 92 239.68 92 239 92 C239 92.66 239 93.32 239 94 C238.34 94 237.68 94 237 94 C236.731875 94.58265625 236.46375 95.1653125 236.1875 95.765625 C234.98519009 98.02786601 233.66174087 99.80576318 232 101.75 C231.484375 102.36359375 230.96875 102.9771875 230.4375 103.609375 C229 105 229 105 227 105 C226.72220703 105.5887793 226.44441406 106.17755859 226.15820312 106.78417969 C224.34581635 110.25155371 221.91246873 113.18298549 219.5 116.25 C219.00113281 116.8996875 218.50226563 117.549375 217.98828125 118.21875 C216.70815807 119.85236564 215.35894401 121.43134241 214 123 C213.34 123 212.68 123 212 123 C212 123.66 212 124.32 212 125 C211.34 125 210.68 125 210 125 C208.37645158 127.485912 208.37645158 127.485912 208 131 C209.6751921 134.41869602 212.0097447 137.28146096 214.375 140.25 C215.61555492 141.85662031 216.85271957 143.46586606 218.0859375 145.078125 C218.6432959 145.78356445 219.2006543 146.48900391 219.77490234 147.21582031 C221 149 221 149 221 151 C221.66 151 222.32 151 223 151 C223.99 153.475 223.99 153.475 225 156 C225.66 156 226.32 156 227 156 C231 161.41176471 231 161.41176471 231 164 C231.66 164 232.32 164 233 164 C237 169.41176471 237 169.41176471 237 172 C237.66 172 238.32 172 239 172 C240.38525391 173.56958008 240.38525391 173.56958008 241.9765625 175.76953125 C242.56131348 176.57124756 243.14606445 177.37296387 243.74853516 178.19897461 C244.67738525 179.49266968 244.67738525 179.49266968 245.625 180.8125 C246.25583496 181.6794751 246.88666992 182.5464502 247.53662109 183.43969727 C250.22618948 187.13966733 252.89612352 190.85361173 255.5625 194.5703125 C256.243125 195.51648438 256.92375 196.46265625 257.625 197.4375 C258.19476563 198.24058594 258.76453125 199.04367187 259.3515625 199.87109375 C261.08199924 202.10589949 262.99323136 204.01387713 265 206 C268 210.5 268 210.5 268 213 C268.66 213 269.32 213 270 213 C274 218.41176471 274 218.41176471 274 221 C274.66 221 275.32 221 276 221 C277.48828125 222.80859375 277.48828125 222.80859375 279.3125 225.4375 C282.9603051 230.58303529 286.72275705 235.62103293 290.5625 240.625 C291.40361328 241.72424805 291.40361328 241.72424805 292.26171875 242.84570312 C295.76502528 247.41648777 299.30562759 251.95442058 302.92578125 256.43359375 C304 258 304 258 304 260 C304.66 260 305.32 260 306 260 C310 265.41176471 310 265.41176471 310 268 C310.66 268 311.32 268 312 268 C313.2890625 269.6796875 313.2890625 269.6796875 314.625 271.875 C315.07101562 272.59429687 315.51703125 273.31359375 315.9765625 274.0546875 C317 276 317 276 317 278 C317.66 278 318.32 278 319 278 C320.41699219 279.6171875 320.41699219 279.6171875 322.046875 281.875 C322.645 282.69613281 323.243125 283.51726562 323.859375 284.36328125 C324.48328125 285.23339844 325.1071875 286.10351562 325.75 287 C326.97365945 288.68771674 328.19761512 290.37521876 329.421875 292.0625 C330.31422852 293.30193359 330.31422852 293.30193359 331.22460938 294.56640625 C333.40685833 297.55769579 335.6629195 300.48853696 337.94238281 303.40625 C339 305 339 305 339 307 C304.02 307 269.04 307 233 307 C233 306.34 233 305.68 233 305 C232.34 305 231.68 305 231 305 C229.55473264 303.26451831 228.1912778 301.46024037 226.875 299.625 C226.15054688 298.62726563 225.42609375 297.62953125 224.6796875 296.6015625 C223 294 223 294 223 292 C222.34 292 221.68 292 221 292 C219.2734375 289.8828125 219.2734375 289.8828125 217.375 287.125 C216.74335938 286.22007812 216.11171875 285.31515625 215.4609375 284.3828125 C214 282 214 282 214 280 C213.34 280 212.68 280 212 280 C208 274.58823529 208 274.58823529 208 272 C207.34 272 206.68 272 206 272 C204.67138672 270.56298828 204.67138672 270.56298828 203.1796875 268.5703125 C202.64472656 267.85746094 202.10976563 267.14460938 201.55859375 266.41015625 C201.00300781 265.65605469 200.44742188 264.90195312 199.875 264.125 C199.31167969 263.37863281 198.74835938 262.63226563 198.16796875 261.86328125 C194 256.26225787 194 256.26225787 194 254 C193.34 254 192.68 254 192 254 C191.01 251.525 191.01 251.525 190 249 C189.34 249 188.68 249 188 249 C184 243.58823529 184 243.58823529 184 241 C183.34 241 182.68 241 182 241 C180.66131726 239.3658023 179.40346254 237.6649573 178.1875 235.9375 C177.12595703 234.43703125 177.12595703 234.43703125 176.04296875 232.90625 C175.36878906 231.9471875 174.69460938 230.988125 174 230 C173.0006887 228.64532502 172.00082775 227.29105501 171 225.9375 C169 223 169 223 169 221 C168.34 221 167.68 221 167 221 C163 215.58823529 163 215.58823529 163 213 C162.34 213 161.68 213 161 213 C159.55925285 211.217871 158.19489351 209.37339724 156.875 207.5 C155.78832031 205.96859375 155.78832031 205.96859375 154.6796875 204.40625 C154.12539062 203.6121875 153.57109375 202.818125 153 202 C149.50336234 204.62398282 146.88019368 207.21869993 144.3125 210.75 C142.55078125 213.171875 142.55078125 213.171875 141 215 C140.34 215 139.68 215 139 215 C139 215.66 139 216.32 139 217 C138.34 217 137.68 217 137 217 C136.7525 217.55171875 136.505 218.1034375 136.25 218.671875 C134.75765526 221.45136707 132.96327477 223.7814707 131 226.25 C130.29875 227.14203125 129.5975 228.0340625 128.875 228.953125 C128.25625 229.62859375 127.6375 230.3040625 127 231 C126.34 231 125.68 231 125 231 C125 231.66 125 232.32 125 233 C124.34 233 123.68 233 123 233 C122.75894531 233.54785156 122.51789063 234.09570312 122.26953125 234.66015625 C120.70272804 237.54789508 118.77838399 239.90384057 116.6875 242.4375 C115.92824219 243.36433594 115.16898437 244.29117188 114.38671875 245.24609375 C112 248 112 248 109.4375 250.546875 C106.45898056 253.54448751 104.04985057 256.81029179 101.55078125 260.20703125 C101.03902344 260.79871094 100.52726562 261.39039063 100 262 C99.34 262 98.68 262 98 262 C98 262.66 98 263.32 98 264 C97.34 264 96.68 264 96 264 C95.7525 264.55171875 95.505 265.1034375 95.25 265.671875 C93.75765526 268.45136707 91.96327477 270.7814707 90 273.25 C89.29875 274.14203125 88.5975 275.0340625 87.875 275.953125 C87.25625 276.62859375 86.6375 277.3040625 86 278 C85.34 278 84.68 278 84 278 C84 278.66 84 279.32 84 280 C83.34 280 82.68 280 82 280 C81.77441406 280.53367187 81.54882812 281.06734375 81.31640625 281.6171875 C79.5683556 284.78131479 77.28808332 287.40156553 74.9375 290.125 C74.49728516 290.64320313 74.05707031 291.16140625 73.60351562 291.6953125 C72.67013897 292.78753384 71.72358317 293.86861609 70.76486206 294.93865967 C68.92955169 297.02887897 68.92955169 297.02887897 67.16348267 299.51251221 C61.73827569 306.4706605 61.73827569 306.4706605 57.1118927 307.87948608 C53.80100304 308.1534797 50.62726381 308.12751088 47.30859375 307.9765625 C45.5298159 307.95533829 45.5298159 307.95533829 43.71510315 307.9336853 C39.95325758 307.87801215 36.19752304 307.75262166 32.4375 307.625 C29.87703957 307.57480442 27.31648512 307.5291832 24.75585938 307.48828125 C18.50184579 307.37844065 12.25135941 307.2114424 6 307 C6 306.34 6 305.68 6 305 C6.66 305 7.32 305 8 305 C8 304.34 8 303.68 8 303 C8.66 303 9.32 303 10 303 C10.28875 302.401875 10.5775 301.80375 10.875 301.1875 C12 299 12 299 14 296 C14.66 296 15.32 296 16 296 C16 295.34 16 294.68 16 294 C16.66 294 17.32 294 18 294 C18.27255615 293.40977051 18.5451123 292.81954102 18.82592773 292.21142578 C19.9700715 290.05637188 21.17942386 288.4441707 22.78515625 286.6171875 C23.58083008 285.70259766 23.58083008 285.70259766 24.39257812 284.76953125 C24.94365234 284.14433594 25.49472656 283.51914062 26.0625 282.875 C27.1593674 281.62398515 28.25450394 280.37144995 29.34765625 279.1171875 C30.07480835 278.29130127 30.07480835 278.29130127 30.81665039 277.44873047 C32.09633185 275.99022263 32.09633185 275.99022263 33 274 C33.66 274 34.32 274 35 274 C35 273.34 35 272.68 35 272 C35.66 272 36.32 272 37 272 C37.2475 271.44828125 37.495 270.8965625 37.75 270.328125 C39.24234474 267.54863293 41.03672523 265.2185293 43 262.75 C43.70125 261.85796875 44.4025 260.9659375 45.125 260.046875 C46.053125 259.03367187 46.053125 259.03367187 47 258 C47.66 258 48.32 258 49 258 C49 257.34 49 256.68 49 256 C49.66 256 50.32 256 51 256 C51.28875 255.401875 51.5775 254.80375 51.875 254.1875 C53 252 53 252 55 249 C55.66 249 56.32 249 57 249 C57 248.34 57 247.68 57 247 C57.66 247 58.32 247 59 247 C59.2475 246.44828125 59.495 245.8965625 59.75 245.328125 C61.24234474 242.54863293 63.03672523 240.2185293 65 237.75 C65.70125 236.85796875 66.4025 235.9659375 67.125 235.046875 C67.74375 234.37140625 68.3625 233.6959375 69 233 C69.66 233 70.32 233 71 233 C71.309375 232.38125 71.61875 231.7625 71.9375 231.125 C72.625 229.75 73.3125 228.375 74 227 C74.66 227 75.32 227 76 227 C76 226.34 76 225.68 76 225 C76.66 225 77.32 225 78 225 C78.2475 224.44828125 78.495 223.8965625 78.75 223.328125 C80.24234474 220.54863293 82.03672523 218.2185293 84 215.75 C84.70125 214.85796875 85.4025 213.9659375 86.125 213.046875 C86.74375 212.37140625 87.3625 211.6959375 88 211 C88.66 211 89.32 211 90 211 C90 210.34 90 209.68 90 209 C90.66 209 91.32 209 92 209 C92.2475 208.443125 92.495 207.88625 92.75 207.3125 C94.22924818 204.57589087 95.93467439 202.32349131 98 200 C98.66 200 99.32 200 100 200 C100 199.34 100 198.68 100 198 C100.66 198 101.32 198 102 198 C102.2475 197.44828125 102.495 196.8965625 102.75 196.328125 C104.24234474 193.54863293 106.03672523 191.2185293 108 188.75 C108.70125 187.85796875 109.4025 186.9659375 110.125 186.046875 C110.74375 185.37140625 111.3625 184.6959375 112 184 C112.66 184 113.32 184 114 184 C114 183.34 114 182.68 114 182 C114.66 182 115.32 182 116 182 C116.24363281 181.443125 116.48726563 180.88625 116.73828125 180.3125 C118.76161385 176.60410093 121.65357031 173.61341134 124.41796875 170.4375 C126.26563364 168.15588767 126.26563364 168.15588767 125.73828125 165.6875 C125.37283203 164.8521875 125.37283203 164.8521875 125 164 C124.34 164 123.68 164 123 164 C121.4140625 161.98828125 121.4140625 161.98828125 119.625 159.3125 C117.67821216 156.43905741 115.7532934 153.69636111 113.5625 151 C112 149 112 149 112 147 C111.34 147 110.68 147 110 147 C106 141.58823529 106 141.58823529 106 139 C105.34 139 104.68 139 104 139 C100 133.58823529 100 133.58823529 100 131 C99.34 131 98.68 131 98 131 C96.64240067 129.32210126 95.36288195 127.58056912 94.125 125.8125 C92.06381839 122.88530863 90.02038674 120.0247251 87.7421875 117.26171875 C86 115 86 115 86 113 C85.34 113 84.68 113 84 113 C80 107.58823529 80 107.58823529 80 105 C79.34 105 78.68 105 78 105 C77.34 103.35 76.68 101.7 76 100 C75.34 100 74.68 100 74 100 C72.2734375 97.8828125 72.2734375 97.8828125 70.375 95.125 C69.74335938 94.22007812 69.11171875 93.31515625 68.4609375 92.3828125 C67 90 67 90 67 88 C66.34 88 65.68 88 65 88 C61 82.58823529 61 82.58823529 61 80 C60.34 80 59.68 80 59 80 C55 74.58823529 55 74.58823529 55 72 C54.34 72 53.68 72 53 72 C51.29687633 69.78059843 49.69683488 67.55963493 48.125 65.25 C45.31243581 61.1438232 42.57160542 57.49223641 39 54 C37.75 51.25 37.75 51.25 37 49 C36.34 49 35.68 49 35 49 C31 43.58823529 31 43.58823529 31 41 C30.34 41 29.68 41 29 41 C27.2734375 38.8828125 27.2734375 38.8828125 25.375 36.125 C24.74335937 35.22007812 24.11171875 34.31515625 23.4609375 33.3828125 C22 31 22 31 22 29 C21.34 29 20.68 29 20 29 C16 23.58823529 16 23.58823529 16 21 C15.34 21 14.68 21 14 21 C10 15.58823529 10 15.58823529 10 13 C9.34 13 8.68 13 8 13 C6.55473264 11.26451831 5.1912778 9.46024037 3.875 7.625 C3.15054688 6.62726563 2.42609375 5.62953125 1.6796875 4.6015625 C0 2 0 2 0 0 Z M63 31 C63.66 32.32 64.32 33.64 65 35 C65.66 35 66.32 35 67 35 C67.28875 35.763125 67.5775 36.52625 67.875 37.3125 C68.96269013 40.15029308 68.96269013 40.15029308 71 43 C71.66 43 72.32 43 73 43 C73.2371875 43.69480469 73.474375 44.38960937 73.71875 45.10546875 C75.2310527 48.52198185 77.25238367 51.35756671 79.5 54.3125 C79.90347656 54.86228516 80.30695313 55.41207031 80.72265625 55.97851562 C81.76268691 57.36007451 82.87633454 58.68556298 84 60 C84.66 60 85.32 60 86 60 C86.28875 60.763125 86.5775 61.52625 86.875 62.3125 C87.96269013 65.15029308 87.96269013 65.15029308 90 68 C90.66 68 91.32 68 92 68 C92.28875 68.763125 92.5775 69.52625 92.875 70.3125 C93.96269013 73.15029308 93.96269013 73.15029308 96 76 C96.66 76 97.32 76 98 76 C98.3403125 76.76570313 98.3403125 76.76570313 98.6875 77.546875 C100.52309357 80.97768678 102.74683958 84.08270021 105 87.25 C105.45117188 87.8996875 105.90234375 88.549375 106.3671875 89.21875 C107.52604968 90.85075709 108.75781503 92.4304825 110 94 C110.66 94 111.32 94 112 94 C112.433125 95.1446875 112.433125 95.1446875 112.875 96.3125 C113.96269013 99.15029308 113.96269013 99.15029308 116 102 C116.66 102 117.32 102 118 102 C118.268125 102.7425 118.53625 103.485 118.8125 104.25 C119.95276751 106.89061949 121.09380306 108.85552844 123 111 C123.66 111 124.32 111 125 111 C125.433125 112.1446875 125.433125 112.1446875 125.875 113.3125 C126.96269013 116.15029308 126.96269013 116.15029308 129 119 C129.66 119 130.32 119 131 119 C131.28875 119.763125 131.5775 120.52625 131.875 121.3125 C132.96269013 124.15029308 132.96269013 124.15029308 135 127 C135.66 127 136.32 127 137 127 C137.23589844 127.70769531 137.47179687 128.41539062 137.71484375 129.14453125 C139.22660265 132.50348493 141.17973508 134.88402217 143.5625 137.6875 C147.91976517 142.83953033 147.91976517 142.83953033 149 145 C149.66 145 150.32 145 151 145 C151.28875 145.763125 151.5775 146.52625 151.875 147.3125 C152.96269013 150.15029308 152.96269013 150.15029308 155 153 C155.66 153 156.32 153 157 153 C157.66 154.65 158.32 156.3 159 158 C159.66 158 160.32 158 161 158 C161.28875 158.763125 161.5775 159.52625 161.875 160.3125 C162.96269013 163.15029308 162.96269013 163.15029308 165 166 C165.66 166 166.32 166 167 166 C167.41765625 166.85851562 167.41765625 166.85851562 167.84375 167.734375 C168.98273792 169.96617566 170.19936383 172.10870874 171.5 174.25 C171.9228125 174.95640625 172.345625 175.6628125 172.78125 176.390625 C173.38453125 177.18726563 173.38453125 177.18726563 174 178 C174.66 178 175.32 178 176 178 C176.28875 178.763125 176.5775 179.52625 176.875 180.3125 C177.96269013 183.15029308 177.96269013 183.15029308 180 186 C180.66 186 181.32 186 182 186 C182.24105469 186.54011719 182.48210937 187.08023438 182.73046875 187.63671875 C184.32256443 190.6004661 186.27053893 193.13907534 188.3125 195.8125 C190.92886685 199.2436977 193.50323416 202.68605989 195.9375 206.25 C196.618125 207.1575 197.29875 208.065 198 209 C198.66 209 199.32 209 200 209 C200.433125 210.1446875 200.433125 210.1446875 200.875 211.3125 C201.96269013 214.15029308 201.96269013 214.15029308 204 217 C204.66 217 205.32 217 206 217 C206.2371875 217.71027344 206.474375 218.42054688 206.71875 219.15234375 C208.21392651 222.4754647 210.13186216 224.79839106 212.5 227.5625 C215.09504152 230.59987815 217.40638632 233.31909884 219 237 C219.66 237 220.32 237 221 237 C221.433125 238.1446875 221.433125 238.1446875 221.875 239.3125 C222.96269013 242.15029308 222.96269013 242.15029308 225 245 C225.66 245 226.32 245 227 245 C227.2475 245.54140625 227.495 246.0828125 227.75 246.640625 C229.27988604 249.5282849 231.09150997 252.09776018 233 254.75 C233.70125 255.73484375 234.4025 256.7196875 235.125 257.734375 C235.74375 258.48203125 236.3625 259.2296875 237 260 C237.66 260 238.32 260 239 260 C239.433125 261.1446875 239.433125 261.1446875 239.875 262.3125 C240.96269013 265.15029308 240.96269013 265.15029308 243 268 C243.66 268 244.32 268 245 268 C245.433125 269.175625 245.433125 269.175625 245.875 270.375 C246.84912254 273.09671632 246.84912254 273.09671632 249 275 C251.81711479 275.27861397 251.81711479 275.27861397 255.1015625 275.1953125 C256.91914063 275.18564453 256.91914063 275.18564453 258.7734375 275.17578125 C260.67996094 275.15064453 260.67996094 275.15064453 262.625 275.125 C263.90375 275.11597656 265.1825 275.10695313 266.5 275.09765625 C269.66685167 275.07402303 272.83333424 275.04107629 276 275 C275.05016642 273.49460339 274.08988109 271.99579653 273.125 270.5 C272.59132813 269.6646875 272.05765625 268.829375 271.5078125 267.96875 C271.01023437 267.3190625 270.51265625 266.669375 270 266 C269.34 266 268.68 266 268 266 C267.731875 265.278125 267.46375 264.55625 267.1875 263.8125 C266.00098638 261.00233617 264.72514361 258.51583443 263 256 C262.34 256 261.68 256 261 256 C260.01 253.525 260.01 253.525 259 251 C258.34 251 257.68 251 257 251 C256.62294922 249.90751953 256.62294922 249.90751953 256.23828125 248.79296875 C254.89862269 245.77134139 253.35080475 243.80491605 251.1875 241.3125 C246.2071542 235.40746458 241.75628642 229.18015786 237.3425293 222.84301758 C236.80797119 222.08657959 236.27341309 221.3301416 235.72265625 220.55078125 C235.24578369 219.86669189 234.76891113 219.18260254 234.27758789 218.4777832 C233.85598389 217.99011475 233.43437988 217.50244629 233 217 C232.34 217 231.68 217 231 217 C230.566875 215.8553125 230.566875 215.8553125 230.125 214.6875 C229.03730987 211.84970692 229.03730987 211.84970692 227 209 C226.34 209 225.68 209 225 209 C224.7525 208.278125 224.505 207.55625 224.25 206.8125 C222.88046785 203.73105265 221.14002978 201.5939755 219 199 C218.195625 197.6078125 218.195625 197.6078125 217.375 196.1875 C216.92125 195.465625 216.4675 194.74375 216 194 C215.34 194 214.68 194 214 194 C213.7313916 193.42580322 213.4627832 192.85160645 213.18603516 192.26000977 C211.96679476 189.93672686 210.59002605 187.94312948 209.0234375 185.83984375 C208.43852539 185.0506958 207.85361328 184.26154785 207.25097656 183.44848633 C206.6319043 182.61986084 206.01283203 181.79123535 205.375 180.9375 C204.10631214 179.23211198 202.83808085 177.52638419 201.5703125 175.8203125 C200.95704102 174.99563477 200.34376953 174.17095703 199.71191406 173.32128906 C198.24287842 171.32933371 196.79602314 169.32555065 195.3671875 167.3046875 C194.66851562 166.31726563 193.96984375 165.32984375 193.25 164.3125 C192.65703125 163.46300781 192.0640625 162.61351562 191.453125 161.73828125 C190.97359375 161.16464844 190.4940625 160.59101563 190 160 C189.34 160 188.68 160 188 160 C187.34 158.35 186.68 156.7 186 155 C185.34 155 184.68 155 184 155 C183.71125 154.236875 183.4225 153.47375 183.125 152.6875 C182.03730987 149.84970692 182.03730987 149.84970692 180 147 C179.34 147 178.68 147 178 147 C177.71125 146.236875 177.4225 145.47375 177.125 144.6875 C176.03730987 141.84970692 176.03730987 141.84970692 174 139 C173.34 139 172.68 139 172 139 C171.74549072 138.2783667 171.49098145 137.5567334 171.22875977 136.81323242 C169.91570193 133.80700047 168.35053484 131.57558034 166.33984375 128.98828125 C165.62892578 128.06595703 164.91800781 127.14363281 164.18554688 126.19335938 C163.44369141 125.24267578 162.70183594 124.29199219 161.9375 123.3125 C160.46610384 121.41380124 158.99598525 119.51411153 157.52734375 117.61328125 C156.87499756 116.77579346 156.22265137 115.93830566 155.55053711 115.07543945 C154 113 154 113 153 111 C152.34 111 151.68 111 151 111 C150.690625 110.01 150.690625 110.01 150.375 109 C148.50875748 104.92819814 146.02438473 101.31203002 143 98 C142.34 98 141.68 98 141 98 C140.71125 97.236875 140.4225 96.47375 140.125 95.6875 C139.03730987 92.84970692 139.03730987 92.84970692 137 90 C136.34 90 135.68 90 135 90 C134.71125 89.236875 134.4225 88.47375 134.125 87.6875 C133.03730987 84.84970692 133.03730987 84.84970692 131 82 C130.34 82 129.68 82 129 82 C128.71125 81.236875 128.4225 80.47375 128.125 79.6875 C127.03730987 76.84970692 127.03730987 76.84970692 125 74 C124.34 74 123.68 74 123 74 C122.773125 73.319375 122.54625 72.63875 122.3125 71.9375 C120.68773854 68.3011291 118.67196743 64.97170737 116 62 C115.34 62 114.68 62 114 62 C113.34 60.35 112.68 58.7 112 57 C111.34 57 110.68 57 110 57 C109.71125 56.236875 109.4225 55.47375 109.125 54.6875 C108.03730987 51.84970692 108.03730987 51.84970692 106 49 C105.34 49 104.68 49 104 49 C103.71125 48.236875 103.4225 47.47375 103.125 46.6875 C102.03730987 43.84970692 102.03730987 43.84970692 100 41 C99.34 41 98.68 41 98 41 C97.71125 40.236875 97.4225 39.47375 97.125 38.6875 C96.03730987 35.84970692 96.03730987 35.84970692 94 33 C93.34 33 92.68 33 92 33 C92 32.34 92 31.68 92 31 C82.43 31 72.86 31 63 31 Z " fill="#FEFEFE" transform="translate(86,102)"/>
</svg>
